inDegrees=no
num_controls=7
num_derivatives=13
num_iterations=165
num_multipliers=7
num_parameters=0
num_slacks=7
num_states=26
objective=5.247595
objective_accelerations=0.463806
objective_balance=0.008261
objective_effort=0.390827
objective_height=4.361239
objective_ligament=0.023461
solver_duration=1375.473986
status=Solve_Succeeded
success=true
DataType=double
version=3
OpenSimVersion=4.4-2022-07-23-0e9fedc
endheader
time	/jointset/ground_pelvis/pelvis_tilt/value	/jointset/ground_pelvis/pelvis_tx/value	/jointset/ground_pelvis/pelvis_ty/value	/jointset/hip_r/hip_flexion_r/value	/jointset/hip_r/hip_adduction_r/value	/jointset/hip_r/hip_rotation_r/value	/jointset/back/lumbar_extension/value	/jointset/patellofemoral_r/patellar_flexion_r/value	/jointset/knee_r/knee_flexion_r/value	/jointset/knee_r/knee_adduction_r/value	/jointset/knee_r/knee_rotation_r/value	/jointset/ankle_r/ankle_angle_r/value	/jointset/subtalar_r/subtalar_angle_r/value	/jointset/ground_pelvis/pelvis_tilt/speed	/jointset/ground_pelvis/pelvis_tx/speed	/jointset/ground_pelvis/pelvis_ty/speed	/jointset/hip_r/hip_flexion_r/speed	/jointset/hip_r/hip_adduction_r/speed	/jointset/hip_r/hip_rotation_r/speed	/jointset/back/lumbar_extension/speed	/jointset/patellofemoral_r/patellar_flexion_r/speed	/jointset/knee_r/knee_flexion_r/speed	/jointset/knee_r/knee_adduction_r/speed	/jointset/knee_r/knee_rotation_r/speed	/jointset/ankle_r/ankle_angle_r/speed	/jointset/subtalar_r/subtalar_angle_r/speed	/forceset/tau_hip_flexion_r	/forceset/tau_hip_adduction_r	/forceset/tau_hip_rotation_r	/forceset/tau_knee_flexion_r	/forceset/tau_ankle_angle_r	/forceset/tau_subtalar_angle_r	/forceset/tau_lumbar_extension	lambda_cid13_p0	lambda_cid14_p0	lambda_cid14_p1	lambda_cid14_p2	lambda_cid14_p3	lambda_cid14_p4	lambda_cid14_p5	/jointset/ground_pelvis/pelvis_tilt/accel	/jointset/ground_pelvis/pelvis_tx/accel	/jointset/ground_pelvis/pelvis_ty/accel	/jointset/hip_r/hip_flexion_r/accel	/jointset/hip_r/hip_adduction_r/accel	/jointset/hip_r/hip_rotation_r/accel	/jointset/back/lumbar_extension/accel	/jointset/patellofemoral_r/patellar_flexion_r/accel	/jointset/knee_r/knee_flexion_r/accel	/jointset/knee_r/knee_adduction_r/accel	/jointset/knee_r/knee_rotation_r/accel	/jointset/ankle_r/ankle_angle_r/accel	/jointset/subtalar_r/subtalar_angle_r/accel	gamma_cid13_p0	gamma_cid14_p0	gamma_cid14_p1	gamma_cid14_p2	gamma_cid14_p3	gamma_cid14_p4	gamma_cid14_p5
1.5	-0.03411823305152478	0.05028657300306679	0.841846150041861	0.6823346270953212	-0.2193293882776688	-0.1486819752266664	-0.611241146774005	0.8543861286065799	0.8543861286065856	-0.04377077377116356	0.1745327535666664	0.2967515272972452	0.1454833420735279	0.3338922204505828	0.195644966006009	0.4067338503813699	-1.668592546094782	0.008240031133419734	-0.1457978398989878	0.8035434238665187	-1.745977067912723	-1.745977067912738	0.4539215494191931	-9.263154067287368e-06	-0.5202513510217825	-0.1986504951788495	-0.1270272001489356	-0.002718273311965134	0.01837766020299038	-0.2994838598288309	0.006391850556252685	-0.0006025874360851651	0.1918737371637944	-13.78936246684745	-40.2328467658018	-5.564619694079621	-0.6801989080331247	-1.235694094962831	-634.6040747785537	67.7146378060857	0.01080958097802625	0.4330040089328631	-0.4322568993694693	-0.787160815675875	-0.2211638714750444	-0.6262777632761749	1.531258849052094	-1.140464980360132	-1.140464980360226	0.3694263846801552	-0.01147958484085325	-0.506804738208755	-0.3347895846326209	8.527304114944654e-08	7.205275433269287e-08	-4.900093845629618e-07	9.575926938011932e-07	1.086922935781176e-08	1.747396122792448e-07	-5.235033381803349e-07
1.51	-0.03077911369209546	0.05226442017282398	0.8458910436558313	0.6656113071402107	-0.2192586486947547	-0.15017102324385	-0.6031304466056789	0.836871698183724	0.8368716981837216	-0.03921212857379087	0.1745327415076589	0.291524231487146	0.1434795292331	0.3338838153196523	0.1998967178841246	0.4021602822051758	-1.675843892615263	0.005903122669376332	-0.1520132498336955	0.8184795006216106	-1.756661220454254	-1.756661220454272	0.4577708095660373	1.844965941569523e-06	-0.5251298866480307	-0.2020743627003327	-0.1209582996675922	-0.00384831154455225	0.01819223648004895	-0.2959495495873612	0.008230747199002119	-0.001548285409547214	0.1860984944021694	-14.67575493127163	-39.4553259890294	-5.733003929282413	-0.7746530042088725	-1.31128078495592	-630.7719170389007	67.22404783711605	-0.01383558586524645	0.4171051453449275	-0.4825602404609075	-0.6599810514269651	-0.240591222113832	-0.6192403963046522	1.457215712200359	-0.9952390216531926	-0.9952390216534587	0.3870998698336498	0.006793070130057793	-0.4666658528802008	-0.340535729940908	8.859496242601702e-08	6.507211117003977e-08	-6.060897039555439e-07	8.679716537900057e-07	2.639085884734517e-08	1.751338883862954e-07	-5.900530160609987e-07
1.52	-0.02744151238912125	0.05428395373498121	0.8498876708952963	0.6488223018236582	-0.2192114055741293	-0.1517222389179299	-0.5948738989451091	0.8192578565093287	0.8192578565093254	-0.03461610596692247	0.1745327179416946	0.2862504927451751	0.1414426076386504	0.3335886091592526	0.2039822444860152	0.3970805754803227	-1.681729618383452	0.003540738675543453	-0.1582313712778656	0.8327129223152042	-1.765859318219929	-1.765859318219948	0.4613970313187665	-1.156452572000474e-05	-0.5295399373961733	-0.2052722459832045	-0.1148893991862484	-0.004978349777149765	0.01800681275715407	-0.2924152393458858	0.01006964384174872	-0.002493983383027156	0.1803232516405459	-15.55658793578398	-38.67988281370541	-5.899903028962371	-0.8714559705983179	-1.397545445002755	-626.9767380782858	66.78186500041737	-0.04655062491577685	0.3997589536878445	-0.5334846091012659	-0.5140366652173693	-0.2262589774328674	-0.6268200651684579	1.390727836752435	-0.8432540251889414	-0.8432540251889423	0.3248187058571072	-0.01638310717518101	-0.4131077625876934	-0.2895927369102218	9.268966269172089e-08	5.826739658450346e-08	-7.334946442521285e-07	7.664937970898714e-07	4.297470351596919e-08	1.746179939889939e-07	-6.54161250618132e-07
1.53	-0.0241082836431885	0.05634346362280735	0.8538310321373507	0.6319812796555061	-0.2191878239899711	-0.1533361596957896	-0.5864786914899406	0.801559456060711	0.8015594560607125	-0.02998541699178341	0.1745327227162053	0.2809350392321614	0.1393749857591287	0.3330077536684476	0.2078868328877788	0.3915124012018849	-1.686238885830188	0.001174353560282415	-0.1645477639589209	0.8461980498984089	-1.773562224636955	-1.77356222463695	0.4647026645865413	6.442944374712502e-06	-0.5334681897449219	-0.2082103855745827	-0.1087496070258388	-0.006146656992735477	0.01783728478247702	-0.2890697056505409	0.01203627852194708	-0.003556489224564904	0.1744964960771042	-16.43004140132555	-37.8862428178363	-6.125628489322423	-0.9459925211636665	-1.466168213003217	-623.3626602663519	66.27811707575982	-0.07125729498382467	0.3808877885798505	-0.5803401283057754	-0.3839770615545078	-0.2419941568470667	-0.6331509018586129	1.307827396114239	-0.6950469672962096	-0.6950469672926197	0.3276038498760271	0.01007017195832715	-0.3702638253903877	-0.2897417424255484	9.760544063337899e-08	5.164960611215374e-08	-8.729319942592156e-07	6.524180726577314e-07	6.068715181237696e-08	1.731350434308184e-07	-7.156754516440145e-07
1.54	-0.02078234430892653	0.05844103519568306	0.8577163403784025	0.6151022437574579	-0.2191879394326204	-0.1550130648069167	-0.5779525483235376	0.7837917789444546	0.7837917789444625	-0.02532283804143896	0.1745327430651562	0.2755827872247858	0.1372792190492584	0.3321307268248004	0.2115945814959255	0.3854699752798185	-1.689332364363035	-0.001198666685954088	-0.1708282379313598	0.8589000645620005	-1.779714651747452	-1.779714651747424	0.4677750263598509	-8.44967126643954e-06	-0.5368996362685485	-0.2109012120529193	-0.1026098148654238	-0.007314964208318709	0.01766775680781007	-0.2857241719551942	0.01400291320214583	-0.004618995066098997	0.1686697405136666	-17.29462297579095	-37.09395770427039	-6.350127634926543	-1.022396446428167	-1.544403004174966	-619.776780356336	65.8156223260015	-0.1057848954841982	0.3603909949644689	-0.6283349378269911	-0.2308788824395017	-0.2275860036280377	-0.6196363234453671	1.234105252829812	-0.533158163883151	-0.5331581638831482	0.2781644069640843	-0.02296312432207812	-0.3137465975633088	-0.24013011430202	1.026534599489937e-07	4.537018423395196e-08	-1.012093932791764e-06	5.296177740527106e-07	7.827747890445596e-08	1.700581762623864e-07	-7.671944497007541e-07
